<svg id="visual" viewBox="0 0 960 540" width="960" height="540" xmlns="http://www.w3.org/2000/svg" xmlns:xlink="http://www.w3.org/1999/xlink" version="1.1"><path d="M0 66L16 63.3C32 60.7 64 55.3 96 49.8C128 44.3 160 38.7 192 41.3C224 44 256 55 288 57.8C320 60.7 352 55.3 384 54.3C416 53.3 448 56.7 480 55.7C512 54.7 544 49.3 576 44.8C608 40.3 640 36.7 672 34.8C704 33 736 33 768 34C800 35 832 37 864 38.8C896 40.7 928 42.3 944 43.2L960 44L960 0L944 0C928 0 896 0 864 0C832 0 800 0 768 0C736 0 704 0 672 0C640 0 608 0 576 0C544 0 512 0 480 0C448 0 416 0 384 0C352 0 320 0 288 0C256 0 224 0 192 0C160 0 128 0 96 0C64 0 32 0 16 0L0 0Z" fill="#b3ccf8"></path><path d="M0 136L16 133.3C32 130.7 64 125.3 96 121.7C128 118 160 116 192 120.5C224 125 256 136 288 137.8C320 139.7 352 132.3 384 124.2C416 116 448 107 480 105.2C512 103.3 544 108.7 576 109.7C608 110.7 640 107.3 672 109.2C704 111 736 118 768 118C800 118 832 111 864 107.5C896 104 928 104 944 104L960 104L960 42L944 41.2C928 40.3 896 38.7 864 36.8C832 35 800 33 768 32C736 31 704 31 672 32.8C640 34.7 608 38.3 576 42.8C544 47.3 512 52.7 480 53.7C448 54.7 416 51.3 384 52.3C352 53.3 320 58.7 288 55.8C256 53 224 42 192 39.3C160 36.7 128 42.3 96 47.8C64 53.3 32 58.7 16 61.3L0 64Z" fill="#a8c4f7"></path><path d="M0 249L16 256.3C32 263.7 64 278.3 96 278.3C128 278.3 160 263.7 192 252.8C224 242 256 235 288 231.5C320 228 352 228 384 237C416 246 448 264 480 270.3C512 276.7 544 271.3 576 270.3C608 269.3 640 272.7 672 275.3C704 278 736 280 768 267.5C800 255 832 228 864 220.8C896 213.7 928 226.3 944 232.7L960 239L960 102L944 102C928 102 896 102 864 105.5C832 109 800 116 768 116C736 116 704 109 672 107.2C640 105.3 608 108.7 576 107.7C544 106.7 512 101.3 480 103.2C448 105 416 114 384 122.2C352 130.3 320 137.7 288 135.8C256 134 224 123 192 118.5C160 114 128 116 96 119.7C64 123.3 32 128.7 16 131.3L0 134Z" fill="#9dbcf5"></path><path d="M0 320L16 322.7C32 325.3 64 330.7 96 327.8C128 325 160 314 192 304C224 294 256 285 288 283.3C320 281.7 352 287.3 384 294.7C416 302 448 311 480 311.8C512 312.7 544 305.3 576 310.7C608 316 640 334 672 336.7C704 339.3 736 326.7 768 314C800 301.3 832 288.7 864 287.8C896 287 928 298 944 303.5L960 309L960 237L944 230.7C928 224.3 896 211.7 864 218.8C832 226 800 253 768 265.5C736 278 704 276 672 273.3C640 270.7 608 267.3 576 268.3C544 269.3 512 274.7 480 268.3C448 262 416 244 384 235C352 226 320 226 288 229.5C256 233 224 240 192 250.8C160 261.7 128 276.3 96 276.3C64 276.3 32 261.7 16 254.3L0 247Z" fill="#92b4f4"></path><path d="M0 449L16 446.3C32 443.7 64 438.3 96 435.7C128 433 160 433 192 428.5C224 424 256 415 288 418.7C320 422.3 352 438.7 384 441.3C416 444 448 433 480 427.5C512 422 544 422 576 426.5C608 431 640 440 672 434.7C704 429.3 736 409.7 768 401.7C800 393.7 832 397.3 864 403.7C896 410 928 419 944 423.5L960 428L960 307L944 301.5C928 296 896 285 864 285.8C832 286.7 800 299.3 768 312C736 324.7 704 337.3 672 334.7C640 332 608 314 576 308.7C544 303.3 512 310.7 480 309.8C448 309 416 300 384 292.7C352 285.3 320 279.7 288 281.3C256 283 224 292 192 302C160 312 128 323 96 325.8C64 328.7 32 323.3 16 320.7L0 318Z" fill="#85a8ed"></path><path d="M0 514L16 513.2C32 512.3 64 510.7 96 506.2C128 501.7 160 494.3 192 494.3C224 494.3 256 501.7 288 506.2C320 510.7 352 512.3 384 510.5C416 508.7 448 503.3 480 498.8C512 494.3 544 490.7 576 491.5C608 492.3 640 497.7 672 498.5C704 499.3 736 495.7 768 496.7C800 497.7 832 503.3 864 505.2C896 507 928 505 944 504L960 503L960 426L944 421.5C928 417 896 408 864 401.7C832 395.3 800 391.7 768 399.7C736 407.7 704 427.3 672 432.7C640 438 608 429 576 424.5C544 420 512 420 480 425.5C448 431 416 442 384 439.3C352 436.7 320 420.3 288 416.7C256 413 224 422 192 426.5C160 431 128 431 96 433.7C64 436.3 32 441.7 16 444.3L0 447Z" fill="#779ce6"></path><path d="M0 541L16 541C32 541 64 541 96 541C128 541 160 541 192 541C224 541 256 541 288 541C320 541 352 541 384 541C416 541 448 541 480 541C512 541 544 541 576 541C608 541 640 541 672 541C704 541 736 541 768 541C800 541 832 541 864 541C896 541 928 541 944 541L960 541L960 501L944 502C928 503 896 505 864 503.2C832 501.3 800 495.7 768 494.7C736 493.7 704 497.3 672 496.5C640 495.7 608 490.3 576 489.5C544 488.7 512 492.3 480 496.8C448 501.3 416 506.7 384 508.5C352 510.3 320 508.7 288 504.2C256 499.7 224 492.3 192 492.3C160 492.3 128 499.7 96 504.2C64 508.7 32 510.3 16 511.2L0 512Z" fill="#6a90df"></path></svg>